<svg width="192" height="192" viewBox="0 0 192 192" fill="none" xmlns="http://www.w3.org/2000/svg">
<rect width="192" height="192" rx="30" fill="#DB4444"/>
<path d="M66 162C69.3137 162 72 159.314 72 156C72 152.686 69.3137 150 66 150C62.6863 150 60 152.686 60 156C60 159.314 62.6863 162 66 162Z" stroke="white" stroke-width="20" stroke-linecap="round" stroke-linejoin="round"/>
<path d="M150 162C153.314 162 156 159.314 156 156C156 152.686 153.314 150 150 150C146.686 150 144 152.686 144 156C144 159.314 146.686 162 150 162Z" stroke="white" stroke-width="20" stroke-linecap="round" stroke-linejoin="round"/>
<path d="M18 30H42L60 132H156" stroke="white" stroke-width="20" stroke-linecap="round" stroke-linejoin="round"/>
<path d="M60 100H153.54C154.234 100 154.906 99.7605 155.443 99.3208C155.98 98.8812 156.348 98.2691 156.484 97.5888L167.284 43.5888C167.371 43.1533 167.36 42.704 167.253 42.2731C167.145 41.8423 166.943 41.4407 166.662 41.0974C166.38 40.754 166.026 40.4775 165.624 40.2877C165.223 40.098 164.784 39.9997 164.34 40H48" stroke="white" stroke-width="20" stroke-linecap="round" stroke-linejoin="round"/>
</svg>
