<svg width="200" height="200" viewBox="0 0 200 200" fill="none" xmlns="http://www.w3.org/2000/svg">
<rect width="200" height="200" rx="30" fill="black"/>
<path d="M58.584 132.232C54.5733 131.891 50.7333 131.592 47.064 131.336C43.3947 130.995 39.5547 130.824 35.544 130.824C34.776 130.824 34.008 130.867 33.24 130.952C32.472 130.952 31.6613 130.952 30.808 130.952C29.6133 130.952 27.864 130.995 25.56 131.08C23.256 131.165 20.696 131.251 17.88 131.336C15.064 131.336 12.2907 131.336 9.56 131.336H8.28L9.688 129.16C9.688 129.16 9.816 129.16 10.072 129.16C10.4133 129.16 10.6693 129.203 10.84 129.288C12.5467 129.288 14.0827 129.331 15.448 129.416C16.8133 129.416 18.0507 129.416 19.16 129.416C21.5493 129.416 23.4267 129.288 24.792 129.032C26.1573 128.691 27.2667 128.051 28.12 127.112C28.9733 126.088 29.6987 124.595 30.296 122.632C30.9787 120.669 31.832 118.067 32.856 114.824C34.2213 110.301 35.4587 105.693 36.568 101C37.7627 96.2213 38.7867 91.656 39.64 87.304C40.4933 82.8667 41.176 78.9413 41.688 75.528C42.2 72.0293 42.5413 69.384 42.712 67.592C42.7973 66.824 42.8827 65.928 42.968 64.904C43.1387 63.88 43.224 62.8133 43.224 61.704C43.224 59.9973 42.968 58.4613 42.456 57.096C41.944 55.7307 40.8773 54.92 39.256 54.664C38.5733 54.4933 37.464 54.408 35.928 54.408C34.4773 54.3227 32.8987 54.28 31.192 54.28C29.5707 54.1947 28.1627 54.152 26.968 54.152H24.024L25.304 52.104L27.608 51.976C32.1307 52.0613 36.5253 52.1893 40.792 52.36C45.144 52.5307 49.2827 52.5733 53.208 52.488C54.744 52.488 56.664 52.4027 58.968 52.232C61.272 52.0613 63.5333 51.8907 65.752 51.72C66.8613 51.6347 67.9707 51.592 69.08 51.592C70.2747 51.5067 71.4267 51.464 72.536 51.464C75.7787 51.464 78.808 51.7627 81.624 52.36C84.5253 52.9573 86.7867 54.1093 88.408 55.816C90.1147 57.5227 90.84 60.04 90.584 63.368C90.4133 65.7573 89.432 68.1467 87.64 70.536C85.848 72.84 83.544 75.0587 80.728 77.192C77.912 79.24 74.9253 81.1173 71.768 82.824C71.1707 83.1653 70.232 83.6347 68.952 84.232C67.672 84.744 66.4347 85.3413 65.24 86.024C68.3973 85.9387 71.896 86.6213 75.736 88.072C79.576 89.5227 82.8187 91.4 85.464 93.704C89.9867 97.544 92.248 101.896 92.248 106.76C92.248 108.979 91.6507 111.197 90.456 113.416C89.2613 115.635 87.3413 117.64 84.696 119.432L74.84 126.344C73.816 127.027 72.5787 127.88 71.128 128.904C69.6773 129.928 67.928 130.824 65.88 131.592C63.9173 132.275 61.4853 132.488 58.584 132.232ZM60.376 128.52C64.3867 128.52 67.8853 127.709 70.872 126.088C73.6027 124.467 75.608 122.333 76.888 119.688C78.2533 117.043 78.936 114.269 78.936 111.368C78.936 108.552 78.3387 105.821 77.144 103.176C75.9493 100.531 74.328 98.0987 72.28 95.88C70.3173 93.576 68.0987 91.784 65.624 90.504C63.1493 89.1387 60.504 88.584 57.688 88.84H57.432C56.92 88.84 56.664 88.712 56.664 88.456C56.664 87.944 57.176 87.56 58.2 87.304C62.296 86.1947 65.6667 84.5307 68.312 82.312C71.0427 80.0933 73.1333 77.6187 74.584 74.888C76.12 72.072 77.016 69.384 77.272 66.824C77.272 66.4827 77.272 66.184 77.272 65.928C77.3573 65.672 77.4 65.3733 77.4 65.032C77.4 61.5333 76.4187 58.8453 74.456 56.968C72.4933 55.0907 70.2747 54.152 67.8 54.152C65.4107 54.152 63.064 55.048 60.76 56.84C58.456 58.632 56.792 61.4053 55.768 65.16C55.3413 66.696 54.7013 69.0427 53.848 72.2C53.08 75.3573 52.2267 78.984 51.288 83.08C50.3493 87.0907 49.4533 91.272 48.6 95.624C47.7467 99.976 47.064 104.115 46.552 108.04C46.04 111.88 45.8267 115.208 45.912 118.024C45.9973 120.499 46.7227 122.504 48.088 124.04C49.5387 125.576 51.3307 126.728 53.464 127.496C55.6827 128.179 57.9867 128.52 60.376 128.52ZM122.366 134.408C121.769 134.408 121.385 134.195 121.214 133.768C121.129 133.341 121.086 132.787 121.086 132.104C121.086 131.592 121.086 130.995 121.086 130.312C121.171 129.629 121.171 128.904 121.086 128.136C120.233 118.408 119.294 108.467 118.27 98.312C117.246 88.1573 115.838 78.3013 114.046 68.744C113.278 64.648 112.211 61.576 110.846 59.528C109.566 57.3947 108.115 55.9867 106.494 55.304C104.958 54.536 103.422 54.152 101.886 54.152C100.435 54.152 99.198 54.152 98.174 54.152C97.662 54.152 97.406 53.9813 97.406 53.64C97.406 53.2987 97.6193 52.9573 98.046 52.616C98.558 52.1893 99.07 51.976 99.582 51.976C102.483 52.0613 104.745 52.1467 106.366 52.232C108.073 52.232 109.481 52.232 110.59 52.232C111.699 52.232 112.894 52.2747 114.174 52.36C115.881 52.4453 117.587 52.5307 119.294 52.616C121.001 52.616 122.707 52.616 124.414 52.616C127.145 52.616 129.875 52.5733 132.606 52.488C135.337 52.3173 137.982 52.1893 140.542 52.104C140.969 52.104 141.182 52.3173 141.182 52.744C141.182 53.0853 141.054 53.4267 140.798 53.768C140.542 54.024 140.201 54.152 139.774 54.152C138.921 54.152 137.726 54.152 136.19 54.152C134.739 54.152 133.246 54.28 131.71 54.536C130.174 54.792 128.851 55.304 127.742 56.072C126.718 56.84 126.206 57.9493 126.206 59.4C126.206 61.2773 126.377 64.0507 126.718 67.72C127.059 71.304 127.443 75.3573 127.87 79.88C128.382 84.3173 128.937 88.8827 129.534 93.576C130.131 98.2693 130.729 102.707 131.326 106.888C131.923 110.984 132.435 114.44 132.862 117.256C133.118 118.792 133.545 119.56 134.142 119.56C134.825 119.56 135.635 118.792 136.574 117.256C139.305 112.819 142.206 107.784 145.278 102.152C148.35 96.52 151.379 90.8027 154.366 85C157.353 79.112 160.083 73.6933 162.558 68.744C164.521 64.8187 165.502 61.7467 165.502 59.528C165.502 57.48 164.862 56.072 163.582 55.304C162.387 54.536 160.894 54.1093 159.102 54.024C157.31 53.8533 155.646 53.8107 154.11 53.896H153.726C153.47 53.896 153.342 53.8107 153.342 53.64C153.342 53.2987 153.641 52.872 154.238 52.36C154.835 51.848 155.347 51.6773 155.774 51.848C160.723 51.9333 164.521 52.0613 167.166 52.232C169.897 52.3173 172.329 52.36 174.462 52.36C176.937 52.36 179.753 52.3173 182.91 52.232C186.153 52.0613 189.31 51.976 192.382 51.976C192.723 51.976 192.894 52.104 192.894 52.36C192.894 52.7013 192.681 53.128 192.254 53.64C191.827 54.152 191.401 54.3653 190.974 54.28C190.377 54.28 189.225 54.3227 187.518 54.408C185.897 54.408 183.934 55.0053 181.63 56.2C179.411 57.3093 177.022 59.5707 174.462 62.984C172.841 65.2027 170.793 68.36 168.318 72.456C165.843 76.4667 163.155 80.904 160.254 85.768C157.438 90.5467 154.665 95.3253 151.934 100.104C149.289 104.797 146.857 109.021 144.638 112.776C142.505 116.531 140.926 119.304 139.902 121.096C139.39 122.12 139.134 122.888 139.134 123.4C139.134 123.912 139.091 124.381 139.006 124.808C139.006 125.149 138.622 125.576 137.854 126.088C137.171 126.515 135.806 127.112 133.758 127.88C132.307 128.392 130.899 129.16 129.534 130.184C128.254 131.208 127.017 132.147 125.822 133C124.627 133.853 123.475 134.323 122.366 134.408Z" fill="white"/>
</svg>
